HIERARCHY
ROOT hip
{
  OFFSET 0.0 0.0 0.0
  CHANNELS 6 Xposition Yposition Zposition Zrotation Yrotation Xrotation
  JOINT torso
  {
    OFFSET 0.0 0.0 0.0
    CHANNELS 3 Zrotation Xrotation Yrotation
    JOINT neck
    {
      OFFSET -8.600829999999974 327.7417449999999 60.895874000000276
      CHANNELS 3 Zrotation Xrotation Yrotation
      JOINT head
      {
        OFFSET 0.7211610000001087 266.848846 239.12060599999995
        CHANNELS 3 Zrotation Xrotation Yrotation
        End Site
        {
          OFFSET 0.0 0.0 0.0
        }
      }
    }
    JOINT left_collar
    {
      OFFSET -8.600829999999974 327.7417449999999 60.895874000000276
      CHANNELS 3 Zrotation Xrotation Yrotation
      JOINT left_upper_arm
      {
        OFFSET -122.29599000000002 -5.21875 31.800903999999946
        CHANNELS 3 Zrotation Xrotation Yrotation
        JOINT left_forearm
        {
          OFFSET -195.94708199999997 63.423126000000025 226.99352999999996
          CHANNELS 3 Zrotation Xrotation Yrotation
          JOINT left_hand
          {
            OFFSET -232.19226099999992 28.282164999999964 80.86950699999989
            CHANNELS 3 Zrotation Xrotation Yrotation
            End Site
            {
              OFFSET 0.0 0.0 0.0
            }
          }
        }
      }
    }
    JOINT right_collar
    {
      OFFSET -8.600829999999974 327.7417449999999 60.895874000000276
      CHANNELS 3 Zrotation Xrotation Yrotation
      JOINT right_upper_arm
      {
        OFFSET 168.41261300000002 -11.913361000000066 -9.389160000000174
        CHANNELS 3 Zrotation Xrotation Yrotation
        JOINT right_forearm
        {
          OFFSET 213.49279800000005 104.82293699999997 83.52258300000017
          CHANNELS 3 Zrotation Xrotation Yrotation
          JOINT right_hand
          {
            OFFSET 222.067185 62.005675999999994 -110.52026300000034
            CHANNELS 3 Zrotation Xrotation Yrotation
            End Site
            {
              OFFSET 0.0 0.0 0.0
            }
          }
        }
      }
    }
  }
}
MOTION
Frames: 14
Frame Time: 0.01
-128.56696119345193 74.4165296749506 530.6157069661508 13.640888065447264 -40.22664605136807 -50.71470348163035 0.3895423472864582 7.761059824206932 0.16005913917049203 -5.246206528061258 19.62876311196547 4.427651281150389 0.0 0.0 0.0 -2.1877230226470012 -0.605586845884766 1.6723900786403418 14.756668422520667 7.946028049166867 -68.64691325115193 -8.374264535961565 -9.48111931450114 -28.417103046496386 0.0 0.0 0.0 -2.8704440617791955 -1.0574949732822119 -9.278845199361474 -51.45654790970373 19.945130936209665 51.70573402072107 -6.639352570969165 -8.027699575914037 25.666279073438588 0.0 0.0 0.0
-128.582511524029 74.47877514441308 530.5606169802453 13.608940529600755 -40.206300761278946 -50.685106022615706 0.40150490340852385 7.754462444274087 0.15842875707163429 -5.246660883725145 19.62326037825999 4.42813338539038 0.0 0.0 0.0 -2.1903602690779285 -0.6061538024445621 1.6689043735996636 14.742368290538026 7.856388679122964 -68.62407562971055 -8.445400550876627 -9.562235197964949 -28.5424978949551 0.0 0.0 0.0 -2.8742006388538064 -1.0587557474615052 -9.286433431803973 -51.44601383552254 19.938160726680177 51.742774602725106 -6.638014443130135 -8.028659042406131 25.673551393923354 0.0 0.0 0.0
-128.60049248912617 74.54466532514347 530.5033281182566 13.578758501957513 -40.18285330846942 -50.65715270752801 0.41237824994238514 7.745906461269443 0.15686726050896552 -5.248762489270331 19.61763684468757 4.430028480335746 0.0 0.0 0.0 -2.1924429069471625 -0.6066522558757955 1.6684453889258237 14.72667171961656 7.758012063876227 -68.59938656053042 -8.520312327591421 -9.649883550793453 -28.681804348349768 0.0 0.0 0.0 -2.877805355952044 -1.0597359938105995 -9.291358189264386 -51.43415505457752 19.929942745982977 51.77920680068735 -6.635009708156244 -8.028797393262023 25.678201481920315 0.0 0.0 0.0
-128.6214321164901 74.61427175158619 530.4439896430686 13.551446913826224 -40.15561125071042 -50.632159188180154 0.4215740330957134 7.7349000396519 0.155429660278376 -5.253099841457637 19.611810146186 4.433842115302021 0.0 0.0 0.0 -2.1938164806204568 -0.6070695500588931 1.6721577529954672 14.709585393951723 7.6507498778540635 -68.57323635418742 -8.598538381756406 -9.74366711309634 -28.834412877429298 0.0 0.0 0.0 -2.8811518862834093 -1.0603107728619912 -9.292493889124056 -51.42126295915076 19.920691258665002 51.814342284614845 -6.630753502750852 -8.02822848156192 25.68035700642107 0.0 0.0 0.0
-128.64584589383162 74.68760641934203 530.3828104676769 13.528138357568544 -40.12389368748884 -50.61148651379088 0.4284921100509521 7.720954190771168 0.15417272110536956 -5.260263358603991 19.60571767860812 4.440081198855747 0.0 0.0 0.0 -2.19431365137639 -0.6073902418130922 1.6811978766504057 14.691149428272123 7.534657884330413 -68.5460652976609 -8.67953418072476 -9.843059198903934 -28.99944897335699 0.0 0.0 0.0 -2.884121530321174 -1.0603519462268864 -9.288700678242243 -51.40766106480453 19.910653635726312 51.84753490125358 -6.625660792814871 -8.027069048223122 25.68016389003963 0.0 0.0 0.0
-128.67422894956033 74.76461129507685 530.3200603863766 13.509963436623314 -40.08705441774202 -50.59650006300838 0.43253336568611533 7.7035987642071095 0.1531541491388997 -5.270826473249902 19.59931647925437 4.449237814829039 0.0 0.0 0.0 -2.193759577552154 -0.6075967760525035 1.6966980082231968 14.671438058472633 7.41000359691094 -68.51835182513379 -8.762686054252274 -9.947410505463933 -29.175779170169623 0.0 0.0 0.0 -2.88658308125934 -1.0597316555473086 -9.27885932908782 -51.39369923373126 19.9001061473232 51.87819434726703 -6.620133318060986 -8.025434543075521 25.67777814879378 0.0 0.0 0.0
-128.70704841400183 74.84514959125836 530.2560695574322 13.49801930471735 -40.04450561993695 -50.588525242149245 0.43311306377178244 7.682398889850076 0.1524317700447457 -5.285325855795591 19.592582586256757 4.46177230087914 0.0 0.0 0.0 -2.191978129770217 -0.6076703560224983 1.71972823370068 14.650559420199025 7.277268395491126 -68.49059932894428 -8.847325376941633 -10.055958524599616 -29.362026276976984 0.0 0.0 0.0 -2.8883936660624583 -1.0583261820832257 -9.261908233733497 -51.379746534104164 19.889348316488714 51.90579856117952 -6.614546812738556 -8.023435003530205 25.67335781253655 0.0 0.0 0.0
-128.74473602258558 74.92899913057043 530.1912260844421 13.493337181557148 -39.995741330818205 -50.58880132892106 0.4296745677701929 7.656971369452827 0.15206268018479788 -5.304241381590203 19.585509968375398 4.478096111052597 0.0 0.0 0.0 -2.1887988016506283 -0.6075919834748127 1.7512575043962748 14.62865437253765 7.137144082119625 -68.46332191215836 -8.932742544553749 -10.167839457795589 -29.55659359438482 0.0 0.0 0.0 -2.889400700189894 -1.0560200936749669 -9.236881375285412 -51.36618284482732 19.87869591769697 51.929904613042346 -6.609238959235958 -8.021171155208698 25.667055331282533 0.0 0.0 0.0
-128.78768099059585 75.01584806790396 530.1259716081054 13.496849816901559 -39.9403599359727 -50.5984351294997 0.4217032121711121 7.627000480141475 0.15210235127593336 -5.327976544553918 19.578109112363776 4.49855506161349 0.0 0.0 0.0 -2.1840641206024984 -0.6073436265309559 1.792114984024321 14.605894352188006 6.990524021925391 -68.43702943786212 -9.018200420684645 -10.282102527880706 -29.75769746212973 0.0 0.0 0.0 -2.889445006243296 -1.0527105475221468 -9.202945953433549 -51.3533893887715 19.868472781784526 51.95015786260409 -6.6044985600989765 -8.018730907399187 25.65901086448116 0.0 0.0 0.0
-128.83622317124093 75.10529318254245 530.0607949139297 13.509360050966482 -39.878084859277315 -50.618356348059834 0.4087400338607683 7.592252642212357 0.15260367167918112 -5.356840090480366 19.57040535346414 4.5234136197518175 0.0 0.0 0.0 -2.1776372997753297 -0.6069094544853529 1.8429531826242809 14.582478273698996 6.838489135418578 -68.41221228480634 -9.102947099237547 -10.397726566269498 -29.963407082622602 0.0 0.0 0.0 -2.888365052193569 -1.0483115816875102 -9.15943818389937 -51.34173845962623 19.85900165348261 51.966299144967124 -6.600556415042805 -8.016186414404844 25.64934681959296 0.0 0.0 0.0
-128.8906465239674 75.19684090265456 529.9962236912934 13.531511758829373 -39.808782637851074 -50.649276710250504 0.39039499190074767 7.552589404399789 0.15361591473697944 -5.391029683211549 19.56243703728246 4.552840929523157 0.0 0.0 0.0 -2.1694098090655847 -0.6062770617175177 1.904214458218674 14.558628521719143 6.682289091025449 -68.38932625910581 -9.186227979511807 -10.513638719621442 -30.171690205862987 0.0 0.0 0.0 -2.8860021752149936 -1.04275819939975 -9.105895693555793 -51.331582679817465 19.850594423062937 51.97816974365578 -6.5975783460227495 -8.013591856446634 25.638163946279352 0.0 0.0 0.0
-128.9511729806057 75.28991117228163 529.9328147408438 13.56376454424571 -39.73247758176546 -50.6916549149849 0.36635922375271196 7.507978197884162 0.15518363556850107 -5.430618419628839 19.554253606133944 4.586899272251546 0.0 0.0 0.0 -2.1593084879411513 -0.6054385902680899 1.9761025071347282 14.53458611066692 6.523319092849788 -68.36877813482174 -9.267297263441876 -10.628735055300329 -30.38046296022681 0.0 0.0 0.0 -2.882206581901213 -1.0360100318101502 -9.042084905367611 -51.323244168181645 19.843542100200626 51.985713947523365 -6.595660715790259 -8.01098205819452 25.625539201944253 0.0 0.0 0.0
-129.01795689609943 75.38384421116643 529.8711430953526 13.60637354430759 -39.649362236083014 -50.745669401531664 0.33641581772807605 7.458500300881724 0.15734551159204735 -5.475544969901915 19.545913704725287 4.625535625439159 0.0 0.0 0.0 -2.1473017843787767 -0.6043916556784691 2.05856043099427 14.510605116222061 6.363092679800293 -68.35091230864913 -9.345429050461862 -10.74190275306952 -30.587641885739096 0.0 0.0 0.0 -2.876843855633368 -1.028054359453786 -8.968021861858832 -51.31700399758997 19.83810490801397 51.98897907345643 -6.59482864026434 -8.008372011361818 25.61152548754421 0.0 0.0 0.0
-129.0910803809763 75.47791015111665 529.8117906492572 13.659375606772677 -39.55980288680518 -50.81120070709812 0.3004485379876261 7.404355444373657 0.16013315767431438 -5.525608035845525 19.5374833924575 4.668576913440454 0.0 0.0 0.0 -2.1334046898805488 -0.6031399857258609 2.151256864581467 14.486946512996795 6.203210969717018 -68.33599906140236 -9.419928224574996 -10.852043459655123 -30.791196085698406 0.0 0.0 0.0 -2.869801651399621 -1.0189082813033525 -8.883985079444118 -51.31309229664882 19.834502857926246 51.988112959249335 -6.595036926369521 -8.005757307080254 25.596153218556836 0.0 0.0 0.0
